<mxfile host="Electron" agent="Mozilla/5.0 (X11; Linux x86_64) AppleWebKit/537.36 (KHTML, like Gecko) draw.io/24.7.5 Chrome/126.0.6478.183 Electron/31.3.0 Safari/537.36" version="24.7.5">
  <diagram name="Страница — 1" id="-7iinr9FQo9lgZhA_vXO">
    <mxGraphModel dx="367" dy="394" grid="1" gridSize="10" guides="1" tooltips="1" connect="1" arrows="1" fold="1" page="1" pageScale="1" pageWidth="827" pageHeight="1169" math="0" shadow="0">
      <root>
        <mxCell id="0" />
        <mxCell id="1" parent="0" />
        <mxCell id="To64jtl__Oc4jpR3MfXC-1" value="&lt;font color=&quot;#545454&quot;&gt;$ cat&lt;/font&gt; &lt;font color=&quot;#ff8000&quot;&gt;/etc/sysctl.d/10-ptrace.conf&lt;/font&gt;&lt;div&gt;&lt;font color=&quot;#ff8000&quot;&gt;kernel.yama.ptrace_scope = 0&lt;br&gt;&lt;/font&gt;&lt;/div&gt;&lt;div&gt;&lt;br&gt;&lt;/div&gt;&lt;div&gt;&lt;font color=&quot;#545454&quot;&gt;$ cat&lt;/font&gt; &lt;font color=&quot;#ff8000&quot;&gt;.psqlrc&lt;/font&gt;&lt;/div&gt;&lt;div&gt;&lt;font color=&quot;#ff8000&quot;&gt;select pg_backend_pid();&lt;/font&gt;&lt;/div&gt;&lt;div&gt;&lt;br&gt;&lt;/div&gt;&lt;div&gt;&lt;font color=&quot;#545454&quot;&gt;$ PSQLRC=&quot;$PWD/.psqlrc&quot; psql postgres&lt;/font&gt;&lt;/div&gt;&lt;div&gt;&amp;nbsp; pg_backend_pid&lt;/div&gt;&lt;div&gt;-----------------&lt;/div&gt;&lt;div&gt;&amp;nbsp; &amp;nbsp; &amp;nbsp; &amp;nbsp; &amp;nbsp; &amp;nbsp; &lt;font color=&quot;#ff8000&quot;&gt;5323&lt;/font&gt;&amp;nbsp;&lt;/div&gt;&lt;div&gt;&lt;br&gt;&lt;/div&gt;&lt;div&gt;postgres#=&amp;nbsp;&lt;/div&gt;" style="text;html=1;align=left;verticalAlign=top;whiteSpace=wrap;rounded=0;fontFamily=Courier New;" vertex="1" parent="1">
          <mxGeometry x="60" y="290" width="280" height="200" as="geometry" />
        </mxCell>
        <mxCell id="To64jtl__Oc4jpR3MfXC-2" value="&lt;font color=&quot;#545454&quot;&gt;{&lt;/font&gt;&lt;div&gt;&amp;nbsp; &amp;nbsp; &lt;font color=&quot;#007fff&quot;&gt;&quot;name&quot;&lt;/font&gt;&lt;font color=&quot;#545454&quot;&gt;:&lt;/font&gt; &lt;font color=&quot;#c96500&quot;&gt;&quot;Backend&quot;&lt;/font&gt;&lt;font color=&quot;#545454&quot;&gt;,&lt;/font&gt;&lt;/div&gt;&lt;div&gt;&amp;nbsp; &amp;nbsp; &lt;font color=&quot;#007fff&quot;&gt;&quot;type&quot;&lt;/font&gt;&lt;font color=&quot;#545454&quot;&gt;:&lt;/font&gt; &lt;font color=&quot;#c96500&quot;&gt;&quot;cppdbg&quot;&lt;/font&gt;&lt;font color=&quot;#545454&quot;&gt;,&lt;/font&gt;&lt;/div&gt;&lt;div&gt;&amp;nbsp; &amp;nbsp; &lt;font color=&quot;#007fff&quot;&gt;&quot;request&quot;&lt;/font&gt;&lt;font color=&quot;#545454&quot;&gt;:&lt;/font&gt; &lt;font color=&quot;#c96500&quot;&gt;&quot;attach&quot;&lt;/font&gt;&lt;font color=&quot;#545454&quot;&gt;,&lt;/font&gt;&lt;/div&gt;&lt;div&gt;&amp;nbsp; &amp;nbsp; &lt;font color=&quot;#007fff&quot;&gt;&quot;program&quot;&lt;/font&gt;&lt;font color=&quot;#545454&quot;&gt;:&lt;/font&gt; &lt;font color=&quot;#c96500&quot;&gt;&quot;${workspaceFolder}/src/backend/postgres&quot;&lt;/font&gt;&lt;font color=&quot;#545454&quot;&gt;,&lt;/font&gt;&lt;/div&gt;&lt;div&gt;&amp;nbsp; &amp;nbsp; &lt;font color=&quot;#007fff&quot;&gt;&quot;processId&quot;&lt;/font&gt;: &lt;font color=&quot;#c96500&quot;&gt;&quot;${command:pickProcess}&quot;&lt;/font&gt;&lt;br&gt;&lt;div&gt;&lt;div&gt;&lt;font color=&quot;#545454&quot;&gt;}&lt;/font&gt;&lt;/div&gt;&lt;/div&gt;&lt;/div&gt;" style="text;html=1;align=left;verticalAlign=top;whiteSpace=wrap;rounded=0;fontFamily=Courier New;" vertex="1" parent="1">
          <mxGeometry x="360" y="290" width="426" height="200" as="geometry" />
        </mxCell>
        <mxCell id="To64jtl__Oc4jpR3MfXC-4" value="Shell" style="text;html=1;align=left;verticalAlign=middle;whiteSpace=wrap;rounded=0;" vertex="1" parent="1">
          <mxGeometry x="60" y="260" width="60" height="30" as="geometry" />
        </mxCell>
        <mxCell id="To64jtl__Oc4jpR3MfXC-5" value="launch.json" style="text;html=1;align=left;verticalAlign=middle;whiteSpace=wrap;rounded=0;" vertex="1" parent="1">
          <mxGeometry x="360" y="260" width="70" height="30" as="geometry" />
        </mxCell>
        <mxCell id="To64jtl__Oc4jpR3MfXC-6" value="" style="endArrow=none;html=1;rounded=0;" edge="1" parent="1">
          <mxGeometry width="50" height="50" relative="1" as="geometry">
            <mxPoint x="350" y="470" as="sourcePoint" />
            <mxPoint x="350" y="260" as="targetPoint" />
          </mxGeometry>
        </mxCell>
      </root>
    </mxGraphModel>
  </diagram>
</mxfile>
